<svg xmlns="http://www.w3.org/2000/svg" width="800" height="800" viewBox="0 0 800 800">
  <rect width="100%" height="100%" fill="#000000"/>
  <path d="M0 669L26.7 678.7C53.3 688.3 106.7 707.7 160 726.8C213.3 746 266.7 765 320 754.7C373.3 744.3 426.7 704.7 480 697.2C533.3 689.7 586.7 714.3 640 725.3C693.3 736.3 746.7 733.7 773.3 732.3L800 731" opacity="0.14" fill="none" stroke="#6b21a8" stroke-width="1"/>
  <path d="M0 489L26.7 513.7C53.3 538.3 106.7 587.7 160 593.7C213.3 599.7 266.7 562.3 320 558.2C373.3 554 426.7 583 480 591C533.3 599 586.7 586 640 577.7C693.3 569.3 746.7 565.7 773.3 563.8L800 562" opacity="0.14" fill="none" stroke="#6b21a8" stroke-width="1.2"/>
  <path d="M0 530L26.7 542.5C53.3 555 106.7 580 160 574C213.3 568 266.7 531 320 525.2C373.3 519.3 426.7 544.7 480 555.3C533.3 566 586.7 562 640 543.7C693.3 525.3 746.7 492.7 773.3 476.3L800 460" opacity="0.16" fill="none" stroke="#6b21a8" stroke-width="1.1"/>
  <path d="M0 598L26.7 596.5C53.3 595 106.7 592 160 598.2C213.3 604.3 266.7 619.7 320 621.8C373.3 624 426.7 613 480 606.2C533.3 599.3 586.7 596.7 640 608.2C693.3 619.7 746.7 645.3 773.3 658.2L800 671" opacity="0.17" fill="none" stroke="#6b21a8" stroke-width="1.3"/>
  <path d="M0 656L26.7 661.8C53.3 667.7 106.7 679.3 160 680.3C213.3 681.3 266.7 671.7 320 669.5C373.3 667.3 426.7 672.7 480 666.3C533.3 660 586.7 642 640 639.8C693.3 637.7 746.7 651.3 773.3 658.2L800 665" opacity="0.18" fill="none" stroke="#a855f7" stroke-width="1"/>
  <path d="M0 475L26.7 474.2C53.3 473.3 106.7 471.7 160 461.3C213.3 451 266.7 432 320 429.5C373.3 427 426.7 441 480 450.2C533.3 459.3 586.7 463.7 640 469C693.3 474.3 746.7 480.7 773.3 483.8L800 487" opacity="0.14" fill="none" stroke="#a855f7" stroke-width="0.9"/>
  <path d="M0 414L26.7 413.2C53.3 412.3 106.7 410.7 160 411.3C213.3 412 266.7 415 320 427.3C373.3 439.7 426.7 461.3 480 464.3C533.3 467.3 586.7 451.7 640 443.5C693.3 435.3 746.7 434.7 773.3 434.3L800 434" opacity="0.15" fill="none" stroke="#a855f7" stroke-width="1"/>
  <path d="M0 374L26.7 380.3C53.3 386.7 106.7 399.3 160 404C213.3 408.7 266.7 405.3 320 398.8C373.3 392.3 426.7 382.7 480 385.2C533.3 387.7 586.7 402.3 640 404.3C693.3 406.3 746.7 395.7 773.3 390.3L800 385" opacity="0.17" fill="none" stroke="#a855f7" stroke-width="0.9"/>
  <path d="M0 347L26.7 351.8C53.3 356.7 106.7 366.3 160 371.5C213.3 376.7 266.7 377.3 320 379C373.3 380.7 426.7 383.3 480 380.7C533.3 378 586.7 370 640 370.8C693.3 371.7 746.7 381.3 773.3 386.2L800 391" opacity="0.19" fill="none" stroke="#f5a525" stroke-width="0.9"/>
  <path d="M0 343L26.7 343.8C53.3 344.7 106.7 346.3 160 348.2C213.3 350 266.7 352 320 351.7C373.3 351.3 426.7 348.7 480 342.8C533.3 337 586.7 328 640 322.8C693.3 317.7 746.7 316.3 773.3 315.7L800 315" opacity="0.16" fill="none" stroke="#a855f7" stroke-width="1"/>
  <path d="M0 241L26.7 247.7C53.3 254.3 106.7 267.7 160 274.3C213.3 281 266.7 281 320 274.7C373.3 268.3 426.7 255.7 480 249.8C533.3 244 586.7 245 640 250.8C693.3 256.7 746.7 267.3 773.3 272.7L800 278" opacity="0.15" fill="none" stroke="#a855f7" stroke-width="1.1"/>
  <path d="M0 221L26.7 224.5C53.3 228 106.7 235 160 241.3C213.3 247.7 266.7 253.3 320 256.5C373.3 259.7 426.7 260.3 480 258C533.3 255.7 586.7 250.3 640 250C693.3 249.7 746.7 254.3 773.3 256.7L800 259" opacity="0.17" fill="none" stroke="#f5a525" stroke-width="1"/>
  <path d="M0 159L26.7 166.2C53.3 173.3 106.7 187.7 160 191.5C213.3 195.3 266.7 188.7 320 187.2C373.3 185.7 426.7 189.3 480 186.5C533.3 183.7 586.7 174.3 640 175.5C693.3 176.7 746.7 188.3 773.3 194.2L800 200" opacity="0.17" fill="none" stroke="#a855f7" stroke-width="1"/>
  <path d="M0 139L26.7 139.7C53.3 140.3 106.7 141.7 160 149.7C213.3 157.7 266.7 172.3 320 179.5C373.3 186.7 426.7 186.3 480 180.8C533.3 175.3 586.7 164.7 640 158.3C693.3 152 746.7 150 773.3 149L800 148" opacity="0.18" fill="none" stroke="#a855f7" stroke-width="0.9"/>
  <path d="M0 90L26.7 89.2C53.3 88.3 106.7 86.7 160 92.5C213.3 98.3 266.7 111.7 320 119.3C373.3 127 426.7 129 480 124C533.3 119 586.7 107 640 103.5C693.3 100 746.7 105 773.3 107.5L800 110" opacity="0.15" fill="none" stroke="#f5a525" stroke-width="1"/>
</svg>