<svg xmlns="http://www.w3.org/2000/svg" width="1440" height="900" viewBox="0 0 1440 900" fill="none">
  <rect width="1440" height="900" fill="#000000"/>
  <path d="M0,288L48,272C96,256,192,224,288,197.3C384,171,480,149,576,165.3C672,181,768,235,864,250.7C960,267,1056,245,1152,250.7C1248,256,1344,288,1392,304L1440,320L1440,900L1392,900C1344,900,1248,900,1152,900C1056,900,960,900,864,900C768,900,672,900,576,900C480,900,384,900,288,900C192,900,96,900,48,900L0,900Z" fill="#6b21a8" opacity="0.05"/>
  <path d="M0,360L48,354.7C96,349,192,339,288,320C384,301,480,275,576,282.7C672,291,768,333,864,341.3C960,349,1056,323,1152,309.3C1248,296,1344,296,1392,296L1440,296L1440,900L1392,900C1344,900,1248,900,1152,900C1056,900,960,900,864,900C768,900,672,900,576,900C480,900,384,900,288,900C192,900,96,900,48,900L0,900Z" fill="#a855f7" opacity="0.07"/>
  <path d="M0,432L48,440C96,448,192,464,288,469.3C384,475,480,469,576,458.7C672,448,768,432,864,421.3C960,411,1056,405,1152,426.7C1248,448,1344,496,1392,520L1440,544L1440,900L1392,900C1344,900,1248,900,1152,900C1056,900,960,900,864,900C768,900,672,900,576,900C480,900,384,900,288,900C192,900,96,900,48,900L0,900Z" fill="#f5a525" opacity="0.07"/>
</svg>