<svg xmlns="http://www.w3.org/2000/svg" fill="none" viewBox="0 0 96 96" id="Cloudflare-Workers-Icon--Streamline-Svg-Logos" height="24" width="24"><desc>Cloudflare Workers Icon Streamline Icon: https://streamlinehq.com</desc><path fill="url(#a)" d="M25.1686 6.83228 36.2431 26.8116 26.0726 45.1184c-.9899 1.7775-.9899 3.9405 0 5.718l10.1705 18.352-11.0745 19.9793c-2.0839-1.0331-3.8143-2.6613-4.9722-4.6784L2.56758 53.8649c-2.090106-3.6387-2.090106-8.1138 0-11.7525L20.1964 11.4881c1.1614-2.00877 2.8915-3.62876 4.9722-4.65582Z"></path><path fill="url(#b)" d="M26.0726 45.1411c-.9816 1.7716-.9816 3.9238 0 5.6955l10.1704 18.352-11.0745 19.9792c-2.0838-1.0331-3.8142-2.6612-4.9722-4.6784L2.56753 53.8651c-1.40127-2.4183 6.44128-5.3112 23.50507-8.7014v-.0226Z" opacity=".7"></path><path fill="url(#c)" d="m26.2986 8.84376 9.9445 17.96784-1.6499 2.8703L25.824 14.833c-2.5313-4.136-6.3961-1.9889-11.2327 6.3735l.7232-1.243 4.8819-8.4754c1.1494-2.0022 2.863-3.6215 4.927-4.65582l1.1526 2.01148h.0226Z" opacity=".5"></path><path fill="url(#d)" d="m75.7948 11.4881 17.6288 30.6243c2.1019 3.6162 2.1019 8.1364 0 11.7525L75.7948 84.4893c-2.098 3.6339-5.9743 5.8736-10.1704 5.8763H47.9956l21.923-39.5292c.9815-1.7716.9815-3.9238 0-5.6954L47.9956 5.61182h17.6288c4.1961.00269 8.0724 2.24234 10.1704 5.87628Z"></path><path fill="url(#e)" d="m64.7206 90.2299-17.4027.1582L68.382 50.6556c.9563-1.7941.9563-3.9466 0-5.7407L47.3179 5.61182h3.9777L73.3994 44.7341c1.0658 1.8806 1.0572 4.1846-.0226 6.0571-4.7571 8.2679-9.4808 16.555-14.1708 24.8611-4.2942 7.5487-2.4409 12.4079 5.5146 14.5776Z"></path><path fill="url(#f)" d="M30.3662 90.3656c-1.8081 0-3.6162-.4295-5.1982-1.1979L46.9101 49.955c.6781-1.2205.6781-2.7121 0-3.9326L25.168 6.83227c1.6161-.80027 3.3948-1.21786 5.1982-1.22045H47.995L69.9179 45.141c.9815 1.7716.9815 3.9238 0 5.6954L47.995 90.3656H30.3662Z"></path><path fill="url(#g)" d="M68.3811 46.0224 45.9609 5.61182h2.0341L69.918 45.141c.9815 1.7716.9815 3.9238 0 5.6954L47.995 90.3656h-2.0341L68.3811 49.955c.6781-1.2205.6781-2.7121 0-3.9326Z" opacity=".6"></path><path fill="url(#h)" d="M46.9101 46.0223 25.168 6.83223c.678-.36162 1.4916-.63283 2.2601-.85884C32.2195 14.5844 39.2936 27.6477 48.673 45.1409c.9815 1.7716.9815 3.9238 0 5.6955L27.0891 89.9135c-.7685-.226-1.1753-.3842-1.8985-.7233l21.6969-39.2127c.6781-1.2204.6781-2.7121 0-3.9325l.0226-.0227Z" opacity=".6"></path><defs><linearGradient id="a" x1="1763.15" x2="-1846.53" y1="8240.38" y2="2435.13" gradientUnits="userSpaceOnUse"><stop stop-color="#eb6f07"></stop><stop offset="1" stop-color="#fab743"></stop></linearGradient><linearGradient id="b" x1="2743.03" x2="884.447" y1="3730.18" y2="1818.68" gradientUnits="userSpaceOnUse"><stop stop-color="#d96504"></stop><stop offset="1" stop-color="#d96504" stop-opacity="0"></stop></linearGradient><linearGradient id="c" x1="923.965" x2="1907.86" y1="205.624" y2="1786.12" gradientUnits="userSpaceOnUse"><stop stop-color="#eb6f07"></stop><stop offset="1" stop-color="#eb720a" stop-opacity="0"></stop></linearGradient><linearGradient id="d" x1="2398.22" x2="-833.96" y1="8480.99" y2="1745.96" gradientUnits="userSpaceOnUse"><stop stop-color="#ee6f05"></stop><stop offset="1" stop-color="#fab743"></stop></linearGradient><linearGradient id="e" x1="-844.928" x2="4330.08" y1="8483.25" y2="7169.77" gradientUnits="userSpaceOnUse"><stop stop-color="#d96504" stop-opacity=".8"></stop><stop offset=".498" stop-color="#d96504" stop-opacity=".2"></stop><stop offset="1" stop-color="#d96504" stop-opacity="0"></stop></linearGradient><linearGradient id="f" x1="2299.47" x2="-998.688" y1="8480.99" y2="1830.46" gradientUnits="userSpaceOnUse"><stop stop-color="#ffa95f"></stop><stop offset="1" stop-color="#ffebc8"></stop></linearGradient><linearGradient id="g" x1="245.976" x2="2996.44" y1="98.841" y2="531.246" gradientUnits="userSpaceOnUse"><stop stop-color="#fff" stop-opacity=".5"></stop><stop offset="1" stop-color="#fff" stop-opacity=".1"></stop></linearGradient><linearGradient id="h" x1="-306.936" x2="3092.72" y1="8752.53" y2="8251.7" gradientUnits="userSpaceOnUse"><stop stop-color="#fff" stop-opacity=".5"></stop><stop offset="1" stop-color="#fff" stop-opacity=".1"></stop></linearGradient></defs></svg>