<svg xmlns="http://www.w3.org/2000/svg" fill="none" viewBox="0 0 24 24" id="Hono--Streamline-Svg-Logos" height="24" width="24"><desc>Hono Streamline Icon: https://streamlinehq.com</desc><path fill="#ff5b11" d="M12.4365 0.2520325c0.062375 -0.0080215 0.11745 0.0077075 0.16515 0.0471875 1.755075 2.142025 3.40665 4.359855 4.954725 6.65348 1.14615 1.725625 2.121325 3.550175 2.92565 5.4738 1.2845 3.426025 0.616 6.40675 -2.005475 8.9421 -2.293725 1.938575 -4.936225 2.693575 -7.927575 2.265025 -3.57555 -0.729025 -6.00575 -2.7974 -7.290525 -6.205225 -0.33465 -1.109425 -0.44475 -2.241925 -0.3303 -3.397525 0.19055 -1.9891 0.662425 -3.9081 1.415625 -5.7569 0.31385 -0.75435 0.722825 -1.4464 1.2269 -2.076275 0.411225 0.4898 0.80445 0.993175 1.179675 1.510025 0.17375 0.181625 0.354625 0.35465 0.542675 0.51905C8.728325 5.378325 10.44285 2.7201 12.4365 0.2520325Z" opacity=".993" stroke-width="0.25"></path><path fill="#ff9758" d="M12.10625 4.07425c1.73145 2.008325 3.296525 4.1475 4.695175 6.41755 0.438525 0.75115 0.800275 1.537625 1.085325 2.3594 0.593825 2.336175 -0.043225 4.26305 -1.9111 5.7805 -1.80655 1.2712 -3.788425 1.6487 -5.945675 1.132525 -2.326325 -0.721875 -3.671175 -2.286975 -4.034575 -4.6952 -0.088175 -0.7593 -0.009525 -1.4986 0.23595 -2.217825 0.35005 -0.888875 0.774725 -1.73825 1.274075 -2.54815 0.471875 -0.6921 0.94375 -1.38415 1.415625 -2.07625 1.071925 -1.378375 2.13365 -2.762525 3.1852 -4.15255Z" stroke-width="0.25"></path></svg>