<svg xmlns="http://www.w3.org/2000/svg" fill="none" viewBox="0 0 96 96" id="Turborepo-Icon--Streamline-Svg-Logos" height="24" width="24"><desc>Turborepo Icon Streamline Icon: https://streamlinehq.com</desc><path fill="url(#a)" d="M40.731 1.02796C29.9195.655167 19.1092 4.0103 10.1616 11.0934l5.9646 3.3551C23.2097 9.2294 32.156 6.99264 40.731 7.36543V1.02796Z"></path><path fill="url(#b)" d="M72.418 15.1947C64.9619 7.36605 55.2693 2.51975 44.8315 1.40137v6.33747c8.9476 1.49118 16.7762 5.59186 23.1134 11.92936l4.4731-4.4735Z"></path><path fill="url(#c)" d="M85.8389 45.7635c-.3725-9.6927-4.1006-19.3853-10.4377-27.5867l-4.4744 4.4735c5.2195 7.0831 8.2024 14.9117 8.5749 23.1132h6.3372Z"></path><path fill="url(#d)" d="M75.4012 77.8229c6.3371-8.2014 10.0652-17.8939 10.4377-27.5866h-6.3372c-.3725 8.2015-3.3554 16.0301-8.5749 23.1131l4.4744 4.4735Z"></path><path fill="url(#e)" d="M44.8315 94.5989c10.0652-1.1184 20.1304-5.9647 27.5865-13.7934l-4.4731-4.4735c-6.3372 6.7102-14.5396 10.811-23.1134 11.9294v6.3375Z"></path><path fill="url(#f)" d="M10.1616 84.9059c8.9476 7.083 19.7579 10.4381 30.5694 10.0654v-6.3375c-8.575.3728-17.1487-1.864-24.6048-7.083l-5.9646 3.3551Z"></path><path fill="#000000" d="M39.0289 22.0898c3.9844 0 7.6619.6786 11.0326 2.0358 3.3706 1.3134 6.2601 3.1522 8.6684 5.5163 2.4513 2.3641 4.3557 5.1441 5.7133 8.3401 1.3576 3.1521 2.0358 6.567 2.0358 10.2445s-.6782 7.1142-2.0358 10.3102c-1.3576 3.1522-3.262 5.9103-5.7133 8.2744-2.4083 2.3641-5.2978 4.2248-8.6684 5.582-3.3707 1.3134-7.0482 1.9701-11.0326 1.9701-4.0273 0-7.7276-.6567-11.0982-1.9701-3.3277-1.3572-6.1945-3.2179-8.6028-5.582-2.4083-2.3641-4.29-5.1222-5.6476-8.2744-1.3576-3.196-2.0358-6.6327-2.0358-10.3102s.6782-7.0924 2.0358-10.2445c1.3576-3.196 3.2393-5.976 5.6476-8.3401 2.4083-2.3641 5.2751-4.2029 8.6028-5.5163 3.3706-1.3572 7.0709-2.0358 11.0982-2.0358Zm0 12.4773c-1.8829 0-3.6775.3502-5.3849 1.0508-1.6632.6567-3.1307 1.5979-4.3999 2.8238-1.2692 1.2259-2.277 2.6706-3.0208 4.3342-.7439 1.6636-1.1164 3.4805-1.1164 5.4506 0 1.9701.3725 3.787 1.1164 5.4506.7438 1.6636 1.7516 3.1084 3.0208 4.3342 1.2692 1.2259 2.7367 2.189 4.3999 2.8895 1.7074.6567 3.502.9851 5.3849.9851 1.883 0 3.6561-.3284 5.3193-.9851 1.7074-.7005 3.1964-1.6636 4.4656-2.8895 1.3134-1.2258 2.3426-2.6706 3.0865-4.3342.7438-1.6636 1.1163-3.4805 1.1163-5.4506 0-1.9701-.3725-3.787-1.1163-5.4506-.7439-1.6636-1.7731-3.1083-3.0865-4.3342-1.2692-1.2259-2.7582-2.1671-4.4656-2.8238-1.6632-.7006-3.4363-1.0508-5.3193-1.0508Z"></path><defs><linearGradient id="a" x1="3794.02" x2="3794.02" y1="1" y2="9400.97" gradientUnits="userSpaceOnUse"><stop stop-color="#1e90ff"></stop><stop offset="1" stop-color="#ff1e56"></stop></linearGradient><linearGradient id="b" x1="361.689" x2="361.689" y1="-38.672" y2="9361.3" gradientUnits="userSpaceOnUse"><stop stop-color="#1e90ff"></stop><stop offset="1" stop-color="#ff1e56"></stop></linearGradient><linearGradient id="c" x1="-2221.71" x2="-2221.71" y1="-1699.46" y2="7700.51" gradientUnits="userSpaceOnUse"><stop stop-color="#1e90ff"></stop><stop offset="1" stop-color="#ff1e56"></stop></linearGradient><linearGradient id="d" x1="-2221.71" x2="-2221.71" y1="-4873.42" y2="4526.55" gradientUnits="userSpaceOnUse"><stop stop-color="#1e90ff"></stop><stop offset="1" stop-color="#ff1e56"></stop></linearGradient><linearGradient id="e" x1="361.689" x2="361.689" y1="-7456.88" y2="1943.09" gradientUnits="userSpaceOnUse"><stop stop-color="#1e90ff"></stop><stop offset="1" stop-color="#ff1e56"></stop></linearGradient><linearGradient id="f" x1="3794.02" x2="3794.02" y1="-7973.57" y2="1426.4" gradientUnits="userSpaceOnUse"><stop stop-color="#1e90ff"></stop><stop offset="1" stop-color="#ff1e56"></stop></linearGradient></defs></svg>